{
    "asset" : {
        "generator" : "Khronos glTF Blender I/O v1.2.75",
        "version" : "2.0"
    },
    "scene" : 0,
    "scenes" : [
        {
            "name" : "Scene",
            "nodes" : [
                0,
                1,
                2,
                3,
                4,
                5,
                6,
                7,
                8
            ]
        }
    ],
    "nodes" : [
        {
            "name" : "Light",
            "rotation" : [
                0.16907575726509094,
                0.7558803558349609,
                -0.27217137813568115,
                0.570947527885437
            ],
            "translation" : [
                4.076245307922363,
                5.903861999511719,
                -1.0054539442062378
            ]
        },
        {
            "name" : "Camera",
            "rotation" : [
                0.483536034822464,
                0.33687159419059753,
                -0.20870360732078552,
                0.7804827094078064
            ],
            "translation" : [
                7.358891487121582,
                4.958309173583984,
                6.925790786743164
            ]
        },
        {
            "mesh" : 0,
            "name" : "Model001_25_Eyebrows_0.4_0_0.006",
            "rotation" : [
                0.7071068286895752,
                0,
                0,
                0.7071067094802856
            ]
        },
        {
            "mesh" : 1,
            "name" : "Model001_24_Eyes_0.4_0_0.001",
            "rotation" : [
                0.7071068286895752,
                0,
                0,
                0.7071067094802856
            ]
        },
        {
            "mesh" : 2,
            "name" : "Model001_24_+Dragon SlayerLt_0.7_0_0.001",
            "rotation" : [
                0.7071068286895752,
                0,
                0,
                0.7071067094802856
            ]
        },
        {
            "mesh" : 3,
            "name" : "Model001_30_Helmeteyes_1_0_0",
            "rotation" : [
                0.7071068286895752,
                0,
                0,
                0.7071067094802856
            ]
        },
        {
            "mesh" : 4,
            "name" : "Model001_24_Face_0.3_0_0.005",
            "rotation" : [
                0.7071068286895752,
                0,
                0,
                0.7071067094802856
            ]
        },
        {
            "mesh" : 5,
            "name" : "Model001_25_+Cape_0.4_0_0",
            "rotation" : [
                0.7071068286895752,
                0,
                0,
                0.7071067094802856
            ]
        },
        {
            "mesh" : 6,
            "name" : "Model001_24_Armor_0.4_0_0.002",
            "rotation" : [
                0.7071068286895752,
                0,
                0,
                0.7071067094802856
            ]
        }
    ],
    "meshes" : [
        {
            "name" : "Model001_25_Eyebrows_0.4_0_0.006",
            "primitives" : [
                {
                    "attributes" : {
                        "POSITION" : 0,
                        "NORMAL" : 1,
                        "TANGENT" : 2,
                        "TEXCOORD_0" : 3
                    },
                    "indices" : 4
                }
            ]
        },
        {
            "name" : "Model001_24_Eyes_0.4_0_0.001",
            "primitives" : [
                {
                    "attributes" : {
                        "POSITION" : 5,
                        "NORMAL" : 6,
                        "TANGENT" : 7,
                        "TEXCOORD_0" : 8
                    },
                    "indices" : 9
                }
            ]
        },
        {
            "name" : "Model001_24_+Dragon SlayerLt_0.7_0_0.001",
            "primitives" : [
                {
                    "attributes" : {
                        "POSITION" : 10,
                        "NORMAL" : 11,
                        "TANGENT" : 12,
                        "TEXCOORD_0" : 13
                    },
                    "indices" : 14
                }
            ]
        },
        {
            "name" : "Model001_30_Helmeteyes_1_0_0",
            "primitives" : [
                {
                    "attributes" : {
                        "POSITION" : 15,
                        "NORMAL" : 16,
                        "TANGENT" : 17,
                        "TEXCOORD_0" : 18
                    },
                    "indices" : 19
                }
            ]
        },
        {
            "name" : "Model001_24_Face_0.3_0_0.005",
            "primitives" : [
                {
                    "attributes" : {
                        "POSITION" : 20,
                        "NORMAL" : 21,
                        "TANGENT" : 22,
                        "TEXCOORD_0" : 23
                    },
                    "indices" : 24
                }
            ]
        },
        {
            "name" : "Model001_25_+Cape_0.4_0_0",
            "primitives" : [
                {
                    "attributes" : {
                        "POSITION" : 25,
                        "NORMAL" : 26,
                        "TANGENT" : 27,
                        "TEXCOORD_0" : 28
                    },
                    "indices" : 29
                }
            ]
        },
        {
            "name" : "Model001_24_Armor_0.4_0_0.002",
            "primitives" : [
                {
                    "attributes" : {
                        "POSITION" : 30,
                        "NORMAL" : 31,
                        "TANGENT" : 32,
                        "TEXCOORD_0" : 33
                    },
                    "indices" : 34
                }
            ]
        }
    ],
    "accessors" : [
        {
            "bufferView" : 0,
            "componentType" : 5126,
            "count" : 220,
            "max" : [
                0.41295918822288513,
                0.309176504611969,
                -1.4760849475860596
            ],
            "min" : [
                0.33608779311180115,
                0.25769659876823425,
                -1.5220179557800293
            ],
            "type" : "VEC3"
        },
        {
            "bufferView" : 1,
            "componentType" : 5126,
            "count" : 220,
            "type" : "VEC3"
        },
        {
            "bufferView" : 2,
            "componentType" : 5126,
            "count" : 220,
            "type" : "VEC4"
        },
        {
            "bufferView" : 3,
            "componentType" : 5126,
            "count" : 220,
            "type" : "VEC2"
        },
        {
            "bufferView" : 4,
            "componentType" : 5123,
            "count" : 780,
            "type" : "SCALAR"
        },
        {
            "bufferView" : 5,
            "componentType" : 5126,
            "count" : 849,
            "max" : [
                0.41423019766807556,
                0.28047889471054077,
                -1.4399950504302979
            ],
            "min" : [
                0.3030993938446045,
                0.20580999553203583,
                -1.5110529661178589
            ],
            "type" : "VEC3"
        },
        {
            "bufferView" : 6,
            "componentType" : 5126,
            "count" : 849,
            "type" : "VEC3"
        },
        {
            "bufferView" : 7,
            "componentType" : 5126,
            "count" : 849,
            "type" : "VEC4"
        },
        {
            "bufferView" : 8,
            "componentType" : 5126,
            "count" : 849,
            "type" : "VEC2"
        },
        {
            "bufferView" : 9,
            "componentType" : 5123,
            "count" : 4113,
            "type" : "SCALAR"
        },
        {
            "bufferView" : 10,
            "componentType" : 5126,
            "count" : 996,
            "max" : [
                0.638290286064148,
                0.817926824092865,
                -0.9689896106719971
            ],
            "min" : [
                0.47175469994544983,
                0.14546799659729004,
                -2.6321940422058105
            ],
            "type" : "VEC3"
        },
        {
            "bufferView" : 11,
            "componentType" : 5126,
            "count" : 996,
            "type" : "VEC3"
        },
        {
            "bufferView" : 12,
            "componentType" : 5126,
            "count" : 996,
            "type" : "VEC4"
        },
        {
            "bufferView" : 13,
            "componentType" : 5126,
            "count" : 996,
            "type" : "VEC2"
        },
        {
            "bufferView" : 14,
            "componentType" : 5123,
            "count" : 2760,
            "type" : "SCALAR"
        },
        {
            "bufferView" : 15,
            "componentType" : 5126,
            "count" : 94,
            "max" : [
                0.4446864128112793,
                0.34324198961257935,
                -1.394531011581421
            ],
            "min" : [
                0.31433799862861633,
                0.228781595826149,
                -1.5781869888305664
            ],
            "type" : "VEC3"
        },
        {
            "bufferView" : 16,
            "componentType" : 5126,
            "count" : 94,
            "type" : "VEC3"
        },
        {
            "bufferView" : 17,
            "componentType" : 5126,
            "count" : 94,
            "type" : "VEC4"
        },
        {
            "bufferView" : 18,
            "componentType" : 5126,
            "count" : 94,
            "type" : "VEC2"
        },
        {
            "bufferView" : 19,
            "componentType" : 5123,
            "count" : 270,
            "type" : "SCALAR"
        },
        {
            "bufferView" : 20,
            "componentType" : 5126,
            "count" : 2089,
            "max" : [
                0.4471442997455597,
                0.32265639305114746,
                -1.405256986618042
            ],
            "min" : [
                0.21143320202827454,
                0.07678156346082687,
                -1.6198999881744385
            ],
            "type" : "VEC3"
        },
        {
            "bufferView" : 21,
            "componentType" : 5126,
            "count" : 2089,
            "type" : "VEC3"
        },
        {
            "bufferView" : 22,
            "componentType" : 5126,
            "count" : 2089,
            "type" : "VEC4"
        },
        {
            "bufferView" : 23,
            "componentType" : 5126,
            "count" : 2089,
            "type" : "VEC2"
        },
        {
            "bufferView" : 24,
            "componentType" : 5123,
            "count" : 11505,
            "type" : "SCALAR"
        },
        {
            "bufferView" : 25,
            "componentType" : 5126,
            "count" : 980,
            "max" : [
                0.3521580100059509,
                0.34874409437179565,
                -0.647668182849884
            ],
            "min" : [
                -0.5544068813323975,
                -1.3878569602966309,
                -1.6229870319366455
            ],
            "type" : "VEC3"
        },
        {
            "bufferView" : 26,
            "componentType" : 5126,
            "count" : 980,
            "type" : "VEC3"
        },
        {
            "bufferView" : 27,
            "componentType" : 5126,
            "count" : 980,
            "type" : "VEC4"
        },
        {
            "bufferView" : 28,
            "componentType" : 5126,
            "count" : 980,
            "type" : "VEC2"
        },
        {
            "bufferView" : 29,
            "componentType" : 5123,
            "count" : 4188,
            "type" : "SCALAR"
        },
        {
            "bufferView" : 30,
            "componentType" : 5126,
            "count" : 12648,
            "max" : [
                0.6590914130210876,
                1.0791560411453247,
                -0.48007678985595703
            ],
            "min" : [
                -0.3826425075531006,
                -0.17478570342063904,
                -1.70551598072052
            ],
            "type" : "VEC3"
        },
        {
            "bufferView" : 31,
            "componentType" : 5126,
            "count" : 12648,
            "type" : "VEC3"
        },
        {
            "bufferView" : 32,
            "componentType" : 5126,
            "count" : 12648,
            "type" : "VEC4"
        },
        {
            "bufferView" : 33,
            "componentType" : 5126,
            "count" : 12648,
            "type" : "VEC2"
        },
        {
            "bufferView" : 34,
            "componentType" : 5123,
            "count" : 55584,
            "type" : "SCALAR"
        }
    ],
    "bufferViews" : [
        {
            "buffer" : 0,
            "byteLength" : 2640,
            "byteOffset" : 0
        },
        {
            "buffer" : 0,
            "byteLength" : 2640,
            "byteOffset" : 2640
        },
        {
            "buffer" : 0,
            "byteLength" : 3520,
            "byteOffset" : 5280
        },
        {
            "buffer" : 0,
            "byteLength" : 1760,
            "byteOffset" : 8800
        },
        {
            "buffer" : 0,
            "byteLength" : 1560,
            "byteOffset" : 10560
        },
        {
            "buffer" : 0,
            "byteLength" : 10188,
            "byteOffset" : 12120
        },
        {
            "buffer" : 0,
            "byteLength" : 10188,
            "byteOffset" : 22308
        },
        {
            "buffer" : 0,
            "byteLength" : 13584,
            "byteOffset" : 32496
        },
        {
            "buffer" : 0,
            "byteLength" : 6792,
            "byteOffset" : 46080
        },
        {
            "buffer" : 0,
            "byteLength" : 8226,
            "byteOffset" : 52872
        },
        {
            "buffer" : 0,
            "byteLength" : 11952,
            "byteOffset" : 61100
        },
        {
            "buffer" : 0,
            "byteLength" : 11952,
            "byteOffset" : 73052
        },
        {
            "buffer" : 0,
            "byteLength" : 15936,
            "byteOffset" : 85004
        },
        {
            "buffer" : 0,
            "byteLength" : 7968,
            "byteOffset" : 100940
        },
        {
            "buffer" : 0,
            "byteLength" : 5520,
            "byteOffset" : 108908
        },
        {
            "buffer" : 0,
            "byteLength" : 1128,
            "byteOffset" : 114428
        },
        {
            "buffer" : 0,
            "byteLength" : 1128,
            "byteOffset" : 115556
        },
        {
            "buffer" : 0,
            "byteLength" : 1504,
            "byteOffset" : 116684
        },
        {
            "buffer" : 0,
            "byteLength" : 752,
            "byteOffset" : 118188
        },
        {
            "buffer" : 0,
            "byteLength" : 540,
            "byteOffset" : 118940
        },
        {
            "buffer" : 0,
            "byteLength" : 25068,
            "byteOffset" : 119480
        },
        {
            "buffer" : 0,
            "byteLength" : 25068,
            "byteOffset" : 144548
        },
        {
            "buffer" : 0,
            "byteLength" : 33424,
            "byteOffset" : 169616
        },
        {
            "buffer" : 0,
            "byteLength" : 16712,
            "byteOffset" : 203040
        },
        {
            "buffer" : 0,
            "byteLength" : 23010,
            "byteOffset" : 219752
        },
        {
            "buffer" : 0,
            "byteLength" : 11760,
            "byteOffset" : 242764
        },
        {
            "buffer" : 0,
            "byteLength" : 11760,
            "byteOffset" : 254524
        },
        {
            "buffer" : 0,
            "byteLength" : 15680,
            "byteOffset" : 266284
        },
        {
            "buffer" : 0,
            "byteLength" : 7840,
            "byteOffset" : 281964
        },
        {
            "buffer" : 0,
            "byteLength" : 8376,
            "byteOffset" : 289804
        },
        {
            "buffer" : 0,
            "byteLength" : 151776,
            "byteOffset" : 298180
        },
        {
            "buffer" : 0,
            "byteLength" : 151776,
            "byteOffset" : 449956
        },
        {
            "buffer" : 0,
            "byteLength" : 202368,
            "byteOffset" : 601732
        },
        {
            "buffer" : 0,
            "byteLength" : 101184,
            "byteOffset" : 804100
        },
        {
            "buffer" : 0,
            "byteLength" : 111168,
            "byteOffset" : 905284
        }
    ],
    "buffers" : [
        {
            "byteLength" : 1016452,
            "uri" : "data:application/octet-stream;base64,"
        }
    ]
}
