# This file uses centimeters as units for non-parametric coordinates.

mtllib Platonic.mtl
g default
v 0.000000 0.000000 -1.000000
v 0.723607 0.525731 -0.447214
v -0.276393 0.850651 -0.447214
v -0.894428 -0.000000 -0.447214
v -0.276393 -0.850651 -0.447214
v 0.723607 -0.525731 -0.447214
v 0.894428 0.000000 0.447214
v 0.276393 0.850651 0.447214
v -0.723607 0.525731 0.447214
v -0.723607 -0.525731 0.447214
v 0.276393 -0.850651 0.447214
v 0.000000 0.000000 1.000000
v -0.235250 0.724024 -1.231783
v 0.380642 1.171495 -0.761284
v 0.615891 0.447471 -1.231783
v 0.303156 0.933019 -1.284191
v -0.761284 -0.000000 -1.231783
v -0.996533 0.724024 -0.761284
v -0.793673 0.576637 -1.284191
v -0.235250 -0.724024 -1.231783
v -0.996533 -0.724024 -0.761284
v -0.793673 -0.576637 -1.284191
v 0.615891 -0.447471 -1.231783
v 0.380642 -1.171495 -0.761284
v 0.303156 -0.933019 -1.284191
v 1.231783 -0.000000 -0.761284
v 0.981034 -0.000000 -1.284191
v -0.000000 1.448048 0.000000
v 0.851141 1.171495 0.000000
v 0.490517 1.509657 -0.303156
v -1.377175 0.447471 0.000000
v -0.851141 1.171495 0.000000
v -1.284191 0.933019 -0.303156
v -0.851141 -1.171495 0.000000
v -1.377175 -0.447471 0.000000
v -1.284191 -0.933019 -0.303156
v 0.851141 -1.171495 0.000000
v 0.000000 -1.448048 0.000000
v 0.490517 -1.509657 -0.303156
v 1.377175 0.447471 0.000000
v 1.377175 -0.447471 0.000000
v 1.587347 -0.000000 -0.303156
v 0.996533 0.724024 0.761284
v 1.284191 0.933019 0.303156
v -0.380642 1.171495 0.761284
v -0.490517 1.509657 0.303156
v -1.231783 -0.000000 0.761284
v -1.587347 -0.000000 0.303156
v -0.380642 -1.171495 0.761284
v -0.490517 -1.509657 0.303156
v 0.996533 -0.724024 0.761284
v 1.284191 -0.933019 0.303156
v 0.235250 0.724024 1.231783
v 0.761284 0.000000 1.231783
v 0.793673 0.576638 1.284191
v -0.615891 0.447471 1.231783
v -0.303156 0.933019 1.284190
v -0.615891 -0.447471 1.231783
v -0.981034 -0.000000 1.284190
v 0.235250 -0.724024 1.231783
v -0.303156 -0.933019 1.284191
v 0.793673 -0.576637 1.284190
vt 0.832809 0.544900
vt 0.689032 0.689121
vt 0.116936 0.793351
vt 0.194985 0.526478
vt 0.153831 0.261541
vt 0.668532 0.407694
vt 0.577787 0.552493
vt 0.520647 0.840264
vt 0.336527 0.677165
vt 0.384937 0.391617
vt 0.535209 0.287023
vt 0.469427 0.547096
vt 0.008228 0.674476
vt 0.746008 0.781017
vt 0.761139 0.624876
vt 0.792353 0.695731
vt 0.082428 0.522905
vt 0.149738 0.663743
vt 0.070434 0.614412
vt 0.037559 0.369334
vt 0.185276 0.387102
vt 0.094496 0.431609
vt 0.745971 0.466458
vt 0.692432 0.305056
vt 0.756651 0.391967
vt 0.684634 0.548460
vt 0.732243 0.546652
vt 0.292635 0.915417
vt 0.628160 0.800832
vt 0.688862 0.829575
vt 0.264191 0.611009
vt 0.255330 0.769951
vt 0.223670 0.684563
vt 0.372888 0.278893
vt 0.293009 0.447624
vt 0.284502 0.368256
vt 0.597650 0.306273
vt 0.563911 0.383974
vt 0.623667 0.274943
vt 0.627087 0.633242
vt 0.620105 0.469404
vt 0.642280 0.550314
vt 0.558129 0.695331
vt 0.605042 0.712797
vt 0.400109 0.788799
vt 0.322612 0.828626
vt 0.354184 0.535026
vt 0.302133 0.531165
vt 0.471528 0.294405
vt 0.455362 0.265694
vt 0.559110 0.413149
vt 0.593066 0.393325
vt 0.481749 0.691615
vt 0.524222 0.551330
vt 0.521364 0.646182
vt 0.410690 0.623864
vt 0.430072 0.704377
vt 0.431207 0.459317
vt 0.400355 0.539457
vt 0.499553 0.409363
vt 0.466846 0.384700
vt 0.527631 0.457858
vt 0.872245 0.672449
vt 0.853924 0.766042
vt 0.951673 0.547354
vt 0.966149 0.643779
vt 0.833301 0.413374
vt 0.948774 0.450100
vt 0.663679 0.269037
vt 0.774972 0.884563
vn -0.184599 -0.134119 -0.973620
vn -0.000000 -0.000000 -1.000000
vn 0.070511 -0.217010 -0.973620
vn -0.085983 -0.264627 -0.960510
vn -0.300635 0.925260 -0.231328
vn -0.276393 0.850651 -0.447214
vn -0.485234 0.791141 -0.372350
vn -0.452130 0.862263 -0.228214
vn 0.857584 0.354833 -0.372349
vn 0.723607 0.525731 -0.447214
vn 0.787073 0.571842 -0.231328
vn 0.872607 0.431829 -0.228213
vn 0.228177 0.000000 -0.973620
vn 0.225105 -0.163548 -0.960510
vn -0.972876 0.000000 -0.231328
vn -0.894427 0.000000 -0.447214
vn -0.902365 -0.217009 -0.372349
vn -0.959776 -0.163548 -0.228214
vn -0.072458 0.925260 -0.372349
vn -0.141044 0.963341 -0.228214
vn 0.070511 0.217009 -0.973620
vn 0.225105 0.163548 -0.960510
vn -0.300635 -0.925260 -0.231328
vn -0.276393 -0.850651 -0.447214
vn -0.072458 -0.925260 -0.372349
vn -0.141044 -0.963341 -0.228213
vn -0.902365 0.217009 -0.372349
vn -0.959776 0.163548 -0.228214
vn -0.184599 0.134119 -0.973620
vn -0.085982 0.264627 -0.960510
vn 0.787073 -0.571842 -0.231328
vn 0.723607 -0.525731 -0.447214
vn 0.857584 -0.354832 -0.372349
vn 0.872607 -0.431829 -0.228213
vn -0.485235 -0.791141 -0.372349
vn -0.452131 -0.862262 -0.228214
vn -0.278245 0.000000 -0.960510
vn 0.602474 0.705961 -0.372349
vn 0.680344 0.696456 -0.228213
vn 0.602474 -0.705961 -0.372349
vn 0.680344 -0.696456 -0.228213
vn 0.716562 0.354833 -0.600527
vn 0.819467 0.268281 -0.506458
vn -0.371146 0.708251 -0.600526
vn -0.505271 0.698714 -0.506458
vn 0.371146 0.708250 0.600527
vn 0.276393 0.850651 0.447214
vn 0.116036 0.791141 0.600527
vn 0.227026 0.698714 0.678423
vn -0.116036 0.791141 -0.600526
vn -0.001922 0.862263 -0.506458
vn -0.788277 -0.134119 -0.600527
vn -0.820654 -0.264626 -0.506458
vn -0.558896 0.571842 0.600526
vn -0.723607 0.525731 0.447214
vn -0.716563 0.354833 0.600526
vn -0.594362 0.431829 0.678423
vn -0.788277 0.134119 -0.600526
vn -0.820654 0.264626 -0.506458
vn -0.116036 -0.791141 -0.600527
vn -0.001921 -0.862262 -0.506458
vn -0.716562 -0.354833 0.600527
vn -0.723607 -0.525731 0.447214
vn -0.558896 -0.571842 0.600527
vn -0.594362 -0.431829 0.678423
vn -0.371146 -0.708250 -0.600526
vn -0.505271 -0.698714 -0.506458
vn 0.716562 -0.354833 -0.600527
vn 0.819467 -0.268281 -0.506458
vn 0.116036 -0.791141 0.600527
vn 0.276393 -0.850651 0.447214
vn 0.371146 -0.708250 0.600527
vn 0.227026 -0.698714 0.678423
vn 0.558896 -0.571842 -0.600527
vn 0.508379 -0.696456 -0.506458
vn 0.558896 0.571842 -0.600527
vn 0.508379 0.696456 -0.506458
vn 0.788277 -0.134119 0.600526
vn 0.894427 0.000000 0.447214
vn 0.788277 0.134119 0.600526
vn 0.734672 0.000000 0.678423
vn 0.594362 0.431829 -0.678423
vn 0.072458 0.925260 0.372349
vn 0.001921 0.862262 0.506458
vn 0.902365 -0.217009 0.372349
vn 0.820654 -0.264626 0.506458
vn -0.227026 0.698714 -0.678423
vn -0.857584 0.354833 0.372350
vn -0.819467 0.268281 0.506458
vn 0.485234 0.791141 0.372349
vn 0.505271 0.698714 0.506458
vn -0.734672 0.000000 -0.678423
vn -0.602474 -0.705961 0.372349
vn -0.508379 -0.696456 0.506458
vn -0.602474 0.705961 0.372350
vn -0.508380 0.696455 0.506458
vn -0.227026 -0.698714 -0.678423
vn 0.485235 -0.791141 0.372349
vn 0.505271 -0.698714 0.506458
vn -0.857584 -0.354833 0.372349
vn -0.819467 -0.268281 0.506458
vn 0.594361 -0.431829 -0.678423
vn 0.902365 0.217009 0.372350
vn 0.820654 0.264626 0.506458
vn 0.072458 -0.925260 0.372349
vn 0.001921 -0.862262 0.506458
vn 0.972876 0.000000 0.231328
vn 0.959776 -0.163548 0.228213
vn 0.300635 0.925260 0.231328
vn 0.141043 0.963341 0.228213
vn -0.070511 -0.217009 0.973620
vn -0.000000 0.000000 1.000000
vn -0.228177 -0.000000 0.973620
vn -0.225105 -0.163548 0.960510
vn 0.452131 0.862263 0.228213
vn -0.787073 0.571842 0.231328
vn -0.872607 0.431829 0.228214
vn 0.184599 -0.134119 0.973620
vn 0.085982 -0.264627 0.960510
vn -0.680344 0.696455 0.228214
vn -0.787073 -0.571842 0.231328
vn -0.680344 -0.696456 0.228213
vn 0.184599 0.134119 0.973620
vn 0.278245 0.000000 0.960510
vn -0.872607 -0.431829 0.228213
vn 0.300635 -0.925260 0.231328
vn 0.452131 -0.862262 0.228213
vn -0.070511 0.217010 0.973620
vn 0.085982 0.264627 0.960510
vn 0.141044 -0.963341 0.228213
vn 0.959776 0.163548 0.228214
vn -0.225105 0.163548 0.960510
s 1
g Cube:pPlatonic1
usemtl initialShadingGroup
f 15/15/1 1/1/2 13/63/3 16/16/4
s 2
f 13/63/5 3/64/6 14/14/7 16/16/8
s 3
f 14/14/9 2/2/10 15/15/11 16/16/12
s 1
f 13/63/3 1/1/2 17/65/13 19/66/14
s 4
f 17/17/15 4/4/16 18/18/17 19/19/18
s 2
f 18/18/19 3/3/6 13/13/5 19/19/20
s 1
f 17/65/13 1/1/2 20/67/21 22/68/22
s 5
f 20/20/23 5/5/24 21/21/25 22/22/26
s 4
f 21/21/27 4/4/16 17/17/15 22/22/28
s 1
f 20/67/21 1/1/2 23/23/29 25/25/30
s 6
f 23/23/31 6/6/32 24/24/33 25/25/34
s 5
f 24/24/35 5/69/24 20/67/23 25/25/36
s 1
f 23/23/29 1/1/2 15/15/1 27/27/37
s 3
f 15/15/11 2/2/10 26/26/38 27/27/39
s 6
f 26/26/40 6/6/32 23/23/31 27/27/41
s 3
f 29/29/42 2/2/10 14/14/9 30/30/43
s 2
f 14/14/7 3/64/6 28/70/44 30/30/45
s 7
f 28/70/46 8/8/47 29/29/48 30/30/49
s 2
f 32/32/50 3/3/6 18/18/19 33/33/51
s 4
f 18/18/17 4/4/16 31/31/52 33/33/53
s 8
f 31/31/54 9/9/55 32/32/56 33/33/57
s 4
f 35/35/58 4/4/16 21/21/27 36/36/59
s 5
f 21/21/25 5/5/24 34/34/60 36/36/61
s 9
f 34/34/62 10/10/63 35/35/64 36/36/65
s 5
f 38/38/66 5/69/24 24/24/35 39/39/67
s 6
f 24/24/33 6/6/32 37/37/68 39/39/69
s 10
f 37/37/70 11/11/71 38/38/72 39/39/73
s 6
f 41/41/74 6/6/32 26/26/40 42/42/75
s 3
f 26/26/38 2/2/10 40/40/76 42/42/77
s 11
f 40/40/78 7/7/79 41/41/80 42/42/81
s 3
f 40/40/76 2/2/10 29/29/42 44/44/82
s 7
f 29/29/48 8/8/47 43/43/83 44/44/84
s 11
f 43/43/85 7/7/79 40/40/78 44/44/86
s 2
f 28/28/44 3/3/6 32/32/50 46/46/87
s 8
f 32/32/56 9/9/55 45/45/88 46/46/89
s 7
f 45/45/90 8/8/47 28/28/46 46/46/91
s 4
f 31/31/52 4/4/16 35/35/58 48/48/92
s 9
f 35/35/64 10/10/63 47/47/93 48/48/94
s 8
f 47/47/95 9/9/55 31/31/54 48/48/96
s 5
f 34/34/60 5/69/24 38/38/66 50/50/97
s 10
f 38/38/72 11/11/71 49/49/98 50/50/99
s 9
f 49/49/100 10/10/63 34/34/62 50/50/101
s 6
f 37/37/68 6/6/32 41/41/74 52/52/102
s 11
f 41/41/80 7/7/79 51/51/103 52/52/104
s 10
f 51/51/105 11/11/71 37/37/70 52/52/106
s 11
f 54/54/107 7/7/79 43/43/85 55/55/108
s 7
f 43/43/83 8/8/47 53/53/109 55/55/110
s 12
f 53/53/111 12/12/112 54/54/113 55/55/114
s 7
f 53/53/109 8/8/47 45/45/90 57/57/115
s 8
f 45/45/88 9/9/55 56/56/116 57/57/117
s 12
f 56/56/118 12/12/112 53/53/111 57/57/119
s 8
f 56/56/116 9/9/55 47/47/95 59/59/120
s 9
f 47/47/93 10/10/63 58/58/121 59/59/122
s 12
f 58/58/123 12/12/112 56/56/118 59/59/124
s 9
f 58/58/121 10/10/63 49/49/100 61/61/125
s 10
f 49/49/98 11/11/71 60/60/126 61/61/127
s 12
f 60/60/128 12/12/112 58/58/123 61/61/129
s 10
f 60/60/126 11/11/71 51/51/105 62/62/130
s 11
f 51/51/103 7/7/79 54/54/107 62/62/131
s 12
f 54/54/113 12/12/112 60/60/128 62/62/132
